<svg width="32" height="25" fill="none" xmlns="http://www.w3.org/2000/svg"><g filter="url(#a)"><path d="M25.471 2.503A22.683 22.683 0 0 0 20.128.95a.085.085 0 0 0-.049.005.081.081 0 0 0-.037.032c-.23.385-.486.886-.665 1.281a21.312 21.312 0 0 0-6.001 0c-.2-.438-.425-.866-.675-1.28a.083.083 0 0 0-.037-.033.088.088 0 0 0-.05-.007 22.667 22.667 0 0 0-5.342 1.553.076.076 0 0 0-.035.028C3.833 7.295 2.9 11.943 3.359 16.532a.08.08 0 0 0 .033.057 22.358 22.358 0 0 0 6.555 3.104.089.089 0 0 0 .092-.027c.506-.645.955-1.328 1.34-2.044a.073.073 0 0 0 .004-.064.078.078 0 0 0-.048-.045 14.787 14.787 0 0 1-2.047-.914.08.08 0 0 1-.03-.027.076.076 0 0 1 .02-.104c.139-.096.276-.197.408-.298a.085.085 0 0 1 .085-.01c4.295 1.837 8.947 1.837 13.191 0a.086.086 0 0 1 .087.009c.131.102.268.203.407.3a.078.078 0 0 1 .033.066.075.075 0 0 1-.012.037.08.08 0 0 1-.028.027 13.83 13.83 0 0 1-2.049.913.08.08 0 0 0-.048.045.075.075 0 0 0 .004.064c.393.716.844 1.397 1.34 2.044a.09.09 0 0 0 .04.029.088.088 0 0 0 .051 0 22.286 22.286 0 0 0 6.565-3.105.077.077 0 0 0 .035-.056c.547-5.306-.917-9.916-3.882-14.001a.065.065 0 0 0-.034-.03Zm-13.45 11.234c-1.292 0-2.358-1.113-2.358-2.479s1.045-2.479 2.359-2.479c1.323 0 2.38 1.122 2.36 2.48 0 1.366-1.046 2.478-2.36 2.478Zm8.723 0c-1.294 0-2.359-1.113-2.359-2.479s1.045-2.479 2.36-2.479c1.323 0 2.38 1.122 2.358 2.48 0 1.366-1.034 2.478-2.359 2.478Z" fill="#fff"/></g><defs><filter id="a" x=".924" y=".948" width="30.901" height="23.401" filterUnits="userSpaceOnUse" color-interpolation-filters="sRGB"><feFlood flood-opacity="0" result="BackgroundImageFix"/><feColorMatrix in="SourceAlpha" values="0 0 0 0 0 0 0 0 0 0 0 0 0 0 0 0 0 0 127 0" result="hardAlpha"/><feOffset dy="2.326"/><feGaussianBlur stdDeviation="1.163"/><feComposite in2="hardAlpha" operator="out"/><feColorMatrix values="0 0 0 0 0 0 0 0 0 0 0 0 0 0 0 0 0 0 0.25 0"/><feBlend in2="BackgroundImageFix" result="effect1_dropShadow_128_579"/><feBlend in="SourceGraphic" in2="effect1_dropShadow_128_579" result="shape"/></filter></defs></svg>