<svg width="29" height="24" fill="none" xmlns="http://www.w3.org/2000/svg"><g filter="url(#a)"><path d="M25.815 2.474a9.49 9.49 0 0 1-2.718.745A4.744 4.744 0 0 0 25.177.6a9.447 9.447 0 0 1-3.004 1.148 4.734 4.734 0 0 0-8.063 4.317A13.438 13.438 0 0 1 4.356 1.12a4.73 4.73 0 0 0-.64 2.379 4.733 4.733 0 0 0 2.105 3.94 4.72 4.72 0 0 1-2.143-.593v.061a4.734 4.734 0 0 0 3.796 4.64 4.766 4.766 0 0 1-2.138.081 4.734 4.734 0 0 0 4.421 3.285A9.496 9.496 0 0 1 3.88 16.94c-.378 0-.755-.022-1.13-.066A13.383 13.383 0 0 0 10.003 19c8.705 0 13.464-7.21 13.464-13.463 0-.203-.005-.409-.014-.612a9.62 9.62 0 0 0 2.36-2.448l.002-.003Z" fill="#fff"/></g><defs><filter id="a" x=".425" y=".25" width="27.716" height="23.401" filterUnits="userSpaceOnUse" color-interpolation-filters="sRGB"><feFlood flood-opacity="0" result="BackgroundImageFix"/><feColorMatrix in="SourceAlpha" values="0 0 0 0 0 0 0 0 0 0 0 0 0 0 0 0 0 0 127 0" result="hardAlpha"/><feOffset dy="2.326"/><feGaussianBlur stdDeviation="1.163"/><feComposite in2="hardAlpha" operator="out"/><feColorMatrix values="0 0 0 0 0 0 0 0 0 0 0 0 0 0 0 0 0 0 0.25 0"/><feBlend in2="BackgroundImageFix" result="effect1_dropShadow_128_576"/><feBlend in="SourceGraphic" in2="effect1_dropShadow_128_576" result="shape"/></filter></defs></svg>