<svg width="21" height="20" fill="none" xmlns="http://www.w3.org/2000/svg"><path d="M11.074 1.535 6.84 5.768H2.628c-.572 0-1.066.208-1.483.625-.416.416-.624.91-.624 1.482v4.213c0 .572.211 1.07.634 1.492.422.422.92.634 1.491.634h4.177l4.232 4.232.019-16.91Zm2.05 17.713c2.176-.485 3.953-1.585 5.333-3.3 1.38-1.715 2.07-3.692 2.07-5.93 0-2.237-.69-4.213-2.07-5.928-1.38-1.715-3.157-2.816-5.332-3.3v2.162c1.578.46 2.852 1.343 3.823 2.648.968 1.305 1.453 2.778 1.453 4.419 0 1.64-.485 3.113-1.453 4.418-.97 1.306-2.245 2.188-3.823 2.648v2.163Zm0-4.4a6.568 6.568 0 0 0 2.275-2.014A4.8 4.8 0 0 0 16.294 10a4.714 4.714 0 0 0-.896-2.815 6.636 6.636 0 0 0-2.273-1.995v2.535c.31.311.565.66.765 1.044.198.386.297.79.297 1.212 0 .448-.096.867-.288 1.258-.193.392-.451.75-.774 1.073v2.536Z" fill="#000"/></svg>